<svg version="1.1" xmlns="http://www.w3.org/2000/svg" width="120" height="120" viewBox="0 0 120 120">
  <style>
    path {
    fill: black;
    }
    @media (prefers-color-scheme: dark) {
    path {
    fill: white;
    }
    }
  </style>
  <path
    d="M0 0 C-0.63320198 5.61397861 -1.5550338 11.06798626 -2.75 16.58740234 C-3.01115601 17.81328568 -3.01115601 17.81328568 -3.27758789 19.06393433 C-3.84834902 21.73867028 -4.42402007 24.41232092 -5 27.0859375 C-5.39995909 28.95296609 -5.79969525 30.82004245 -6.19921875 32.68716431 C-7.03428111 36.58602189 -7.87172783 40.48435728 -8.7109375 44.38232422 C-9.78785955 49.38515007 -10.85925668 54.38913988 -11.92895508 59.39351463 C-12.75218218 63.24227236 -13.57806335 67.09045669 -14.40478516 70.93846512 C-14.80107216 72.78434446 -15.1965821 74.63039079 -15.59130859 76.47660446 C-16.14154061 79.04797313 -16.69527781 81.61856166 -17.25 84.18896484 C-17.41314697 84.95466797 -17.57629395 85.72037109 -17.74438477 86.50927734 C-18.88567688 91.77135377 -18.88567688 91.77135377 -20 94 C-24.14261705 92.7472199 -27.59156256 91.21727285 -31.2578125 88.92578125 C-32.21300781 88.34119141 -33.16820313 87.75660156 -34.15234375 87.15429688 C-36.14501277 85.91968 -38.1345747 84.68003502 -40.12109375 83.43554688 C-41.07371094 82.85482422 -42.02632813 82.27410156 -43.0078125 81.67578125 C-44.30162842 80.8700769 -44.30162842 80.8700769 -45.62158203 80.0480957 C-47.90395993 78.8069067 -47.90395993 78.8069067 -50.18261719 79.23095703 C-52.62075282 80.26267751 -54.20204562 81.75287563 -56.125 83.5625 C-59.79074447 87 -59.79074447 87 -62 87 C-63.066245 84.09173408 -64.09853265 81.17251838 -65.125 78.25 C-65.42792969 77.425 -65.73085937 76.6 -66.04296875 75.75 C-66.32011719 74.95078125 -66.59726563 74.1515625 -66.8828125 73.328125 C-67.14465332 72.5949707 -67.40649414 71.86181641 -67.67626953 71.10644531 C-68.10106073 68.34241931 -67.41871827 67.39105026 -66 65 C-64.78055058 63.61014292 -63.50452792 62.26901483 -62.19287109 60.96582031 C-61.41221283 60.18531311 -60.63155457 59.40480591 -59.82723999 58.60064697 C-58.98448517 57.76821472 -58.14173035 56.93578247 -57.2734375 56.078125 C-56.41062164 55.21813904 -55.54780579 54.35815308 -54.65884399 53.47210693 C-51.90221971 50.7266769 -49.13872201 47.9882831 -46.375 45.25 C-44.50475143 43.38978217 -42.63495411 41.52911054 -40.765625 39.66796875 C-36.1823064 35.10670055 -31.59332522 30.55118989 -27 26 C-33.90906401 30.34508328 -40.71327475 34.80504261 -47.4296875 39.44140625 C-49.14773354 40.61366259 -50.86650406 41.78485773 -52.5859375 42.95507812 C-55.25213667 44.76972592 -57.91394262 46.58949753 -60.56445312 48.42700195 C-63.15409158 50.21981036 -65.75864662 51.98875561 -68.3671875 53.75390625 C-69.15995087 54.3109877 -69.95271423 54.86806915 -70.76950073 55.44203186 C-76.27169385 59.12108282 -76.27169385 59.12108282 -79.65356445 58.55883789 C-80.42788818 58.04442139 -81.20221191 57.53000488 -82 57 C-82.97493408 56.44038574 -83.94986816 55.88077148 -84.9543457 55.30419922 C-86.01741943 54.64436035 -87.08049316 53.98452148 -88.17578125 53.3046875 C-88.74580368 52.95238068 -89.31582611 52.60007385 -89.90312195 52.23709106 C-91.70855466 51.120067 -93.51055229 49.99763533 -95.3125 48.875 C-96.54209416 48.11292044 -97.77190969 47.35119794 -99.00195312 46.58984375 C-102.00387424 44.73068637 -105.00274105 42.86666662 -108 41 C-106.44884865 37.89769731 -103.98864579 37.67646901 -100.78491211 36.48486328 C-100.13391037 36.24050034 -99.48290863 35.99613739 -98.81217957 35.74436951 C-96.63636429 34.92957883 -94.45691262 34.1250029 -92.27734375 33.3203125 C-90.74094084 32.7472001 -89.20477647 32.17344785 -87.6688385 31.59909058 C-83.58824504 30.07509847 -79.50453367 28.55963764 -75.42010498 27.04595947 C-71.39741591 25.55368276 -67.3774781 24.05403924 -63.35742188 22.5546875 C-58.60323304 20.78187747 -53.84859087 19.01033304 -49.09164429 17.24493408 C-41.24995361 14.33403996 -33.41515748 11.40672875 -25.59423828 8.44042969 C-24.09902973 7.8745966 -22.6037961 7.30882979 -21.10853577 6.74313354 C-18.30755012 5.68336023 -15.50901147 4.61743523 -12.71165466 3.54812622 C-11.46094289 3.074634 -10.21013958 2.60138344 -8.95922852 2.12841797 C-7.87577652 1.71558563 -6.79232452 1.3027533 -5.67604065 0.87741089 C-3 0 -3 0 0 0 Z "
    transform="translate(114,13)" />
</svg>